<svg xmlns="http://www.w3.org/2000/svg" xmlns:xlink="http://www.w3.org/1999/xlink" version="1.1" viewBox="490 0 520 82"><svg xml:space="preserve" width="1500" height="82" data-version="2" data-id="lg_9JxQl63EU9ldxApQBb" viewBox="0 0 520 82" x="0" y="0"><rect width="100%" height="100%" fill="transparent" data-darkreader-inline-fill="" style="--darkreader-inline-fill: transparent;"/><path fill="#21af32" d="M127.9 74.725q-3.16 0-6.56-.59-3.41-.6-6.22-1.53-2.82-.94-4.3-2.03l3.56-8.39q1.67 1.19 5.08 2.67t8.44 1.48q4.44 0 6.02-1.33 1.58-1.34 1.58-3.11 0-1.88-1.33-2.92-1.33-1.03-3.8-1.92-2.47-.89-5.83-2.17-3.25-1.39-6.22-3.21-2.96-1.83-4.78-4.54-1.83-2.72-1.83-6.67 0-6.41 4.94-9.82 4.93-3.41 13.03-3.41 4.14 0 8.04.89 3.9.89 5.88 2.27l-3.85 8.49q-1.19-1.18-3.9-2.17-2.72-.99-6.47-.99-7.01 0-7.01 4.25 0 2.07 1.53 3.31 1.53 1.23 4.05 2.07 2.52.84 5.48 2.02 6.02 2.37 9.23 5.48 3.21 3.11 3.21 8.25 0 4.64-2.47 7.7-2.47 3.06-6.56 4.49-4.1 1.43-8.94 1.43" data-darkreader-inline-fill="" style="--darkreader-inline-fill: var(--darkreader-background-21af32, #1ea12e);"/><rect width="35.05" height="47.49" x="-17.52" y="-23.75" fill="none" rx="0" ry="0" transform="translate(128.84 51.48)"/><path fill="#21af32" d="M176.77 74.725q-7.11 0-12.49-3.16t-8.34-8.59q-2.96-5.43-2.96-12.04 0-6.52 2.91-11.9 2.91-5.38 8.24-8.59t12.64-3.21q7.3 0 12.63 3.21 5.34 3.21 8.2 8.59 2.86 5.38 2.86 11.9 0 6.61-2.91 12.04-2.91 5.43-8.24 8.59-5.34 3.16-12.54 3.16m.29-8.69q5.93 0 9.14-4.34 3.2-4.35 3.2-10.56 0-4.25-1.57-7.66-1.58-3.4-4.5-5.47-2.91-2.08-6.86-2.08-3.85 0-6.61 2.08-2.77 2.07-4.3 5.47-1.53 3.41-1.53 7.66 0 4.14 1.68 7.55 1.68 3.4 4.59 5.38 2.91 1.97 6.76 1.97m11.55-46.1q-2.96 0-5.03-2.07-2.07-2.08-2.07-5.04 0-2.86 2.02-4.94 2.02-2.07 5.08-2.07 3.07 0 5.14 2.07 2.07 2.08 2.07 4.94 0 2.96-2.07 5.04-2.07 2.07-5.14 2.07m-23.79 0q-2.96 0-5.03-2.07-2.08-2.08-2.08-5.04 0-2.86 2.03-4.94 2.02-2.07 5.08-2.07 3.16 0 5.14 2.07 1.97 2.08 1.97 4.94 0 2.96-2.02 5.04-2.03 2.07-5.09 2.07" data-darkreader-inline-fill="" style="--darkreader-inline-fill: var(--darkreader-background-21af32, #1ea12e);"/><rect width="47.48" height="68.91" x="-23.74" y="-34.45" fill="none" rx="0" ry="0" transform="translate(177.22 40.77)"/><path fill="#21af32" d="M244.29 73.735H205.5l20.63-33.27 2.47-3.55-10.96.3h-7.8v-8.79h35.24l-20.43 33.37-2.47 3.75 10.66-.59h11.45z" data-darkreader-inline-fill="" style="--darkreader-inline-fill: var(--darkreader-background-21af32, #1ea12e);"/><rect width="39.58" height="45.31" x="-19.79" y="-22.66" fill="none" rx="0" ry="0" transform="translate(225.79 51.58)"/><path fill="#21af32" d="M269.47 74.725q-3.16 0-6.57-.59-3.4-.6-6.22-1.53-2.81-.94-4.29-2.03l3.55-8.39q1.68 1.19 5.09 2.67 3.4 1.48 8.44 1.48 4.44 0 6.02-1.33 1.58-1.34 1.58-3.11 0-1.88-1.33-2.92-1.34-1.03-3.8-1.92-2.47-.89-5.83-2.17-3.26-1.39-6.22-3.21-2.96-1.83-4.79-4.54-1.82-2.72-1.82-6.67 0-6.41 4.93-9.82 4.94-3.41 13.03-3.41 4.15 0 8.05.89 3.9.89 5.87 2.27l-3.85 8.49q-1.18-1.18-3.89-2.17-2.72-.99-6.47-.99-7.01 0-7.01 4.25 0 2.07 1.53 3.31 1.53 1.23 4.05 2.07 2.51.84 5.48 2.02 6.02 2.37 9.23 5.48 3.21 3.11 3.21 8.25 0 4.64-2.47 7.7-2.47 3.06-6.57 4.49-4.09 1.43-8.93 1.43" data-darkreader-inline-fill="" style="--darkreader-inline-fill: var(--darkreader-background-21af32, #1ea12e);"/><rect width="35.05" height="47.49" x="-17.52" y="-23.75" fill="none" rx="0" ry="0" transform="translate(270.42 51.48)"/><path fill="#21af32" d="M312.91 74.725q-6.82 0-10.37-2.86-3.55-2.87-4.79-7.6-1.23-4.74-1.23-10.47v-25.37h10.66v22.71q0 5.23.64 8.49.64 3.25 2.57 4.78 1.92 1.53 5.77 1.53 2.77 0 5.28-1.53 2.52-1.53 4.2-4.24 1.68-2.72 1.68-6.07v-25.67h10.56v45.31h-8.69l-1.18-6.61q-2.47 3.75-6.12 5.67-3.65 1.93-8.98 1.93m15.59-54.79q-2.96 0-5.03-2.07-2.07-2.08-2.07-5.04 0-2.86 2.02-4.94 2.02-2.07 5.08-2.07t5.14 2.07q2.07 2.08 2.07 4.94 0 2.96-2.07 5.04-2.08 2.07-5.14 2.07m-23.79 0q-2.96 0-5.03-2.07-2.08-2.08-2.08-5.04 0-2.86 2.03-4.94 2.02-2.07 5.08-2.07 3.16 0 5.14 2.07 1.97 2.08 1.97 4.94 0 2.96-2.02 5.04-2.03 2.07-5.09 2.07" data-darkreader-inline-fill="" style="--darkreader-inline-fill: var(--darkreader-background-21af32, #1ea12e);"/><rect width="41.36" height="68.91" x="-20.68" y="-34.45" fill="none" rx="0" ry="0" transform="translate(317.7 40.77)"/><path fill="#21af32" d="M384.58 73.735h-38.8l20.63-33.27 2.47-3.55-10.96.3h-7.8v-8.79h35.25l-20.44 33.37-2.47 3.75 10.67-.59h11.45z" data-darkreader-inline-fill="" style="--darkreader-inline-fill: var(--darkreader-background-21af32, #1ea12e);"/><rect width="39.59" height="45.31" x="-19.8" y="-22.66" fill="none" rx="0" ry="0" transform="translate(366.07 51.58)"/><path fill="#21af32" d="M405.61 73.735h-10.57V1.175h10.57z" data-darkreader-inline-fill="" style="--darkreader-inline-fill: var(--darkreader-background-21af32, #1ea12e);"/><rect width="10.57" height="72.56" x="-5.29" y="-36.28" fill="none" rx="0" ry="0" transform="translate(400.82 37.95)"/><path fill="#21af32" d="M435.02 74.725q-6.81 0-10.36-2.86-3.56-2.87-4.79-7.6-1.23-4.74-1.23-10.47v-25.37h10.66v22.71q0 5.23.64 8.49.64 3.25 2.57 4.78 1.92 1.53 5.77 1.53 2.77 0 5.28-1.53 2.52-1.53 4.2-4.24 1.68-2.72 1.68-6.07v-25.67H460v45.31h-8.69l-1.18-6.61q-2.47 3.75-6.12 5.67-3.65 1.93-8.99 1.93m15.6-54.79q-2.96 0-5.03-2.07-2.08-2.08-2.08-5.04 0-2.86 2.03-4.94 2.02-2.07 5.08-2.07t5.14 2.07q2.07 2.08 2.07 4.94 0 2.96-2.07 5.04-2.08 2.07-5.14 2.07m-23.79 0q-2.96 0-5.03-2.07-2.08-2.08-2.08-5.04 0-2.86 2.03-4.94 2.02-2.07 5.08-2.07 3.16 0 5.13 2.07 1.98 2.08 1.98 4.94 0 2.96-2.03 5.04-2.02 2.07-5.08 2.07" data-darkreader-inline-fill="" style="--darkreader-inline-fill: var(--darkreader-background-21af32, #1ea12e);"/><rect width="41.36" height="68.91" x="-20.68" y="-34.45" fill="none" rx="0" ry="0" transform="translate(439.82 40.77)"/><path fill="#21af32" d="M483.69 73.735h-10.26V1.175h10.17v39.79l-.2 7.7 17.27-20.24h13.13l-17.07 18.95 17.17 26.36h-12.53l-9.19-14.81-2.56-5.03-5.93 6.42z" data-darkreader-inline-fill="" style="--darkreader-inline-fill: var(--darkreader-background-21af32, #1ea12e);"/><rect width="40.47" height="72.56" x="-20.23" y="-36.28" fill="none" rx="0" ry="0" transform="translate(494.17 37.95)"/><path fill="#21af32" d="M42.24 75.02c-6.005 0-12.606-1.339-19.764-4.025a4.763 4.763 0 0 1-2.786-2.786c-7.71-20.564-2.914-34.133 2.463-41.896C31.706 12.531 51.528 4.625 76.536 4.625a4.763 4.763 0 0 1 4.762 4.763c0 30.489-6.848 50.692-20.34 60.04-5.377 3.734-11.635 5.592-18.717 5.592M27.873 62.813c11.54 3.915 20.831 3.51 27.66-1.21 9.969-6.905 15.531-23.226 16.174-47.343-19.502.88-34.561 7.143-41.724 17.478-5.634 8.13-6.339 18.578-2.11 31.075M9.856 80.825a4.763 4.763 0 0 1-.953-9.43c.353-.08 22.146-5.105 39.686-35.8a4.763 4.763 0 1 1 8.268 4.725C36.959 75.143 11.85 80.515 10.794 80.725z" data-darkreader-inline-fill="" style="--darkreader-inline-fill: var(--darkreader-background-21af32, #1ea12e);"/></svg></svg>